<svg>
<path fill="none" stroke="#000000" stroke-width="20" stroke-linejoin="round" stroke-miterlimit="10" d="M390.7,532.8v58.6h-186
	v-58.6 M483.7,354.4v102.3c0,41-33.4,74.4-74.4,74.4H186c-41,0-74.4-33.4-74.4-74.4v-86.2 M482.3,374.4c0-46,20-120.9-54.4-120.9
	c-69.2,0-148.8,37.2-223.2,37.2c-37.2,0-45.8-5.3-64.4-14.6c0,74.4-35.2,107.6-35.2,107.6s-30.6-25.2-30.6-74.4
	c0-114.7,98.1-204.6,223.2-204.6s223.2,89.9,223.2,204.6C520.9,365.1,482.3,374.4,482.3,374.4z"/>
<circle cx="363.4" cy="365.1" r="15.6"/>
<path fill="none" stroke="#000000" stroke-width="20" stroke-miterlimit="10" d="M216.7,433"/>
<path fill="none" stroke="#000000" stroke-width="17.6617" stroke-linecap="round" stroke-miterlimit="10" d="M234.5,446.1
	c15.2,19.5,38.2,30.6,63.2,30.6s48-11.2,63.2-30.6"/>
<g display="none">
	<g display="inline">
		<path d="M92.3,393c-2.7-0.2-5.2-1.6-6.8-3.8c-0.8-1.1-20.4-28.3-20.4-79.9c0-120,102.1-213.9,232.5-213.9
			c130.4,0,232.5,94,232.5,213.9c0,58.6-19.8,71.4-23.7,73.4c-1.3,0.7-2.7,1-4.2,1c-1.7,0-3.4-0.5-4.9-1.4c-2.7-1.7-4.4-4.7-4.4-7.9
			c0-58.8-5-111.6-65.1-111.6c-32.9,0-68.1,8.7-105.4,17.8c-38.8,9.5-78.8,19.4-117.8,19.4c-30.7,0-49.6-6.1-65.6-13.3
			c-4.4,67.7-37.9,102.1-39.5,103.6c-1.8,1.7-4.1,2.7-6.6,2.7C92.8,393,92.5,393,92.3,393z"/>
		<path d="M297.6,104.7c125.2,0,223.2,89.9,223.2,204.6c0,55.8-18.6,65.1-18.6,65.1c0-46,0-120.9-74.4-120.9
			c-69.2,0-148.8,37.2-223.2,37.2c-37.2,0-55.8-9.3-74.4-18.6c0,74.4-37.2,111.6-37.2,111.6s-18.6-25.2-18.6-74.4
			C74.4,194.6,172.5,104.7,297.6,104.7 M297.6,86.1C162,86.1,55.8,184.2,55.8,309.3c0,53.7,20,82.4,22.2,85.4
			c3.2,4.4,8.2,7.1,13.6,7.5c0.5,0,0.9,0.1,1.4,0.1c4.9,0,9.7-1.9,13.2-5.4c1.5-1.5,33.3-34,41-96.8c14.5,5.3,32.4,9.2,57.5,9.2
			c40.1,0,80.8-10,120.1-19.6c36.7-9,71.4-17.6,103.2-17.6c46.9,0,55.8,36,55.8,102.3c0,6.4,3.3,12.4,8.8,15.8
			c3,1.8,6.4,2.8,9.8,2.8c2.8,0,5.7-0.7,8.3-2c6.8-3.4,28.9-19.3,28.9-81.7C539.5,184.2,433.2,86.1,297.6,86.1L297.6,86.1z"/>
	</g>
</g>
<path fill="none" stroke="#000000" stroke-width="20" stroke-linejoin="round" stroke-miterlimit="10" d="M390.7,588.4"/>
<path fill="none" stroke="#000000" stroke-width="20" stroke-miterlimit="10" d="M260.4,588.4"/>
<circle cx="226.2" cy="365.1" r="15.6"/>
</svg>
